<svg width="428" height="59" viewBox="0 0 428 59" fill="none" xmlns="http://www.w3.org/2000/svg">
<path d="M5.54875 2.22399L2.38075 5.39199V55.888H8.33275V31.984H15.6287V55.888H21.5807V5.39199L18.4127 2.22399H5.54875ZM15.6287 26.128H8.33275V8.75199L8.90875 8.17599H15.1487L15.7247 8.75199L15.6287 26.128ZM19.3727 0.207989H4.78075L0.364746 4.62399V58.096H10.5407V34.192H13.6127V58.096H23.7887V4.62399L19.3727 0.207989ZM22.7327 57.04H14.6687V33.136H9.48475V57.04H1.42075V5.00799L5.26075 1.16799H18.9887L22.8287 5.00799L22.7327 57.04ZM9.58075 25.072H14.7647V9.23199H9.58075V25.072ZM10.6367 10.288H13.7087V24.016H10.6367V10.288Z" fill="#EEEEEE"/>
<path d="M35.3807 2.22399V55.888H41.3327V11.536L54.1007 36.4V55.984H60.0527V2.31999H54.1007V24.208L42.8687 2.31999L35.3807 2.22399ZM51.9887 0.207989V15.376L44.2127 0.207989H33.2687V58.096H43.4447V20.368L51.9887 36.976V58.192H62.1647V0.303993L51.9887 0.207989ZM61.1087 57.136H53.0447V36.784L42.3887 16.048V57.136H34.3247V1.35999H43.5407L53.0447 19.888V1.35999H61.1087V57.136Z" fill="#EEEEEE"/>
<path d="M77.08 2.22399L73.912 5.39199V55.888H79.864V31.984H87.16V55.888H93.112V5.39199L89.944 2.22399H77.08ZM87.16 26.128H79.864V8.75199L80.44 8.17599H86.68L87.256 8.75199L87.16 26.128ZM90.904 0.207989H76.312L71.896 4.62399V58.096H82.072V34.192H85.144V58.096H95.32V4.62399L90.904 0.207989ZM94.264 57.04H86.2V33.136H81.016V57.04H72.952V5.00799L76.792 1.16799H90.52L94.36 5.00799L94.264 57.04ZM81.112 25.072H86.296V9.23199H81.112V25.072ZM82.168 10.288H85.24V24.016H82.168V10.288Z" fill="#EEEEEE"/>
<path d="M112.864 49.456V2.22399H106.912V53.776L109.024 55.888H125.44V49.936H113.344L112.864 49.456ZM114.976 47.824V0.11199H104.8V54.64L108.16 58H127.648V47.824H114.976ZM126.592 56.944H108.64L105.856 54.16V1.07199H113.92V48.784H126.592V56.944Z" fill="#EEEEEE"/>
<path d="M145.301 55.888V2.22399H139.349V55.888H145.301ZM137.237 0.11199V58H147.413V0.11199H137.237ZM146.357 56.944H138.293V1.16799H146.357V56.944Z" fill="#EEEEEE"/>
<path d="M172.379 8.65599V17.584H178.331V5.39199L175.163 2.22399H162.395L159.227 5.39199V28.816L162.395 31.984H171.899L172.475 32.56V49.456L171.899 50.032H165.659L165.083 49.456V40.528H159.131V52.72L162.299 55.888H175.067L178.235 52.72V29.296L175.067 26.128H165.563L164.987 25.552V8.65599L165.563 8.07999H171.803L172.379 8.65599ZM180.347 4.43199L175.931 0.0159912H161.339L156.923 4.43199V29.584L161.339 34H170.171V47.728H167.099V38.32H156.923V53.488L161.339 57.904H175.931L180.347 53.488V28.336L175.931 23.92H167.099V10.192H170.171V19.6H180.347V4.43199ZM166.043 9.13599V24.976H175.451L179.291 28.816V53.104L175.451 56.944H161.723L157.883 53.104V39.376H165.947V48.784H171.131V32.944H161.723L157.883 29.104V4.81599L161.723 0.97599H175.451L179.291 4.81599V18.544H171.227V9.13599H166.043Z" fill="#EEEEEE"/>
<path d="M198.563 8.17599H210.659V2.22399H195.299L192.131 5.39199V52.72L195.299 55.888H210.659V49.936H198.563L197.987 49.36V31.984H207.491V26.032H197.987V8.65599L198.563 8.17599ZM212.771 10.288V0.11199H194.339L189.923 4.52799V53.584L194.339 58H212.771V47.824H200.099V34.096H209.603V23.92H200.099V10.192L212.771 10.288ZM208.451 33.04H198.947V48.88H211.619V56.944H194.723L190.883 53.104V4.91199L194.723 1.07199H211.619V9.13599H198.947V24.976H208.451V33.04Z" fill="#EEEEEE"/>
<path d="M249.083 55.888V2.22399H243.131V55.888H249.083ZM241.019 0.11199V58H251.195V0.11199H241.019ZM250.139 56.944H242.075V1.16799H250.139V56.944Z" fill="#EEEEEE"/>
<path d="M262.912 2.22399V55.888H268.864V11.536L281.632 36.4V55.984H287.584V2.31999H281.632V24.208L270.4 2.31999L262.912 2.22399ZM279.52 0.207989V15.376L271.744 0.207989H260.8V58.096H270.976V20.368L279.52 36.976V58.192H289.696V0.303993L279.52 0.207989ZM288.64 57.136H280.576V36.784L269.92 16.048V57.136H261.856V1.35999H271.072L280.576 19.888V1.35999H288.64V57.136Z" fill="#EEEEEE"/>
<path d="M307.395 55.888V2.22399H301.443V55.888H307.395ZM299.331 0.11199V58H309.507V0.11199H299.331ZM308.451 56.944H300.387V1.16799H308.451V56.944Z" fill="#EEEEEE"/>
<path d="M334.472 8.65599V17.584H340.424V5.39199L337.256 2.22399H324.488L321.32 5.39199V52.72L324.488 55.888H337.256L340.424 52.72V40.528H334.472V49.456L333.896 50.032H327.656L327.08 49.456V8.65599L327.656 8.07999H333.896L334.472 8.65599ZM342.44 19.6V4.43199L338.024 0.0159912H323.432L319.016 4.43199V53.488L323.432 57.904H338.024L342.44 53.488V38.32H332.264V47.728H329.192V10.192H332.264V19.6H342.44ZM328.136 9.13599V48.88H333.32V39.472H341.384V53.2L337.544 57.04H323.816L319.976 53.2V5.00799L323.816 1.16799H337.544L341.384 5.00799V18.736H333.32V9.32799L328.136 9.13599Z" fill="#EEEEEE"/>
<path d="M360.176 55.888V2.22399H354.224V55.888H360.176ZM352.112 0.11199V58H362.288V0.11199H352.112ZM361.232 56.944H353.168V1.16799H361.232V56.944Z" fill="#EEEEEE"/>
<path d="M377.174 2.22399L374.006 5.39199V55.888H379.958V31.984H387.254V55.888H393.206V5.39199L390.038 2.22399H377.174ZM387.254 26.128H379.958V8.75199L380.534 8.17599H386.774L387.35 8.75199L387.254 26.128ZM390.998 0.207989H376.406L371.99 4.62399V58.096H382.166V34.192H385.238V58.096H395.414V4.62399L390.998 0.207989ZM394.358 57.04H386.294V33.136H381.11V57.04H373.046V5.00799L376.886 1.16799H390.614L394.454 5.00799L394.358 57.04ZM381.206 25.072H386.39V9.23199H381.206V25.072ZM382.262 10.288H385.334V24.016H382.262V10.288Z" fill="#EEEEEE"/>
<path d="M412.958 49.456V2.22399H407.006V53.776L409.118 55.888H425.534V49.936H413.438L412.958 49.456ZM415.07 47.824V0.11199H404.894V54.64L408.254 58H427.742V47.824H415.07ZM426.686 56.944H408.734L405.95 54.16V1.07199H414.014V48.784H426.686V56.944Z" fill="#EEEEEE"/>
</svg>
