<svg width="15" height="15" viewBox="0 0 15 15" fill="none" xmlns="http://www.w3.org/2000/svg">
<path d="M5.6084 5.55C5.76122 5.11559 6.06285 4.74927 6.45987 4.51594C6.85689 4.28261 7.32368 4.19731 7.77756 4.27517C8.23145 4.35302 8.64313 4.58899 8.9397 4.9413C9.23627 5.2936 9.39858 5.73949 9.3979 6.2C9.3979 7.5 7.4479 8.15 7.4479 8.15M7.5 10.75H7.5065M14 7.5C14 11.0899 11.0899 14 7.5 14C3.91015 14 1 11.0899 1 7.5C1 3.91015 3.91015 1 7.5 1C11.0899 1 14 3.91015 14 7.5Z" stroke="#F8E089" stroke-linecap="round" stroke-linejoin="round"/>
</svg>
