<svg width="596" height="212" viewBox="0 0 596 212" fill="none" xmlns="http://www.w3.org/2000/svg">
<path d="M72.8357 188.287H25.1036L22.9821 186.164V117.503H60.1072V94.1436H22.9821V25.4825L25.1036 23.3589H72.8357V0H12.375L0 12.3873V198.551L12.375 210.938H72.8357V188.287Z" fill="#111111"/>
<path d="M181.617 86.3573L137.421 0.35394H108.074V211.646H131.41V37.1619L181.617 134.845V212H204.953V0.707858H181.617V86.3573Z" fill="#111111"/>
<path d="M292.293 0.35394V139.8L277.797 180.147L263.3 139.8V0.35394H239.965V141.923L266.129 211.646H289.465L315.629 141.923V0.35394H292.293Z" fill="#111111"/>
<path d="M374.49 211.646V0.35394H351.154V211.646H374.49Z" fill="#111111"/>
<path d="M409.853 13.0952V211.646H433.189V117.856H461.828V211.646H485.164V13.0952L472.789 0.707858H422.581L409.853 13.0952ZM462.181 94.4975H433.542V25.8364L435.664 23.7129H460.414L462.535 25.8364L462.181 94.4975Z" fill="#111111"/>
<path d="M596 128.12V12.7412L583.625 0.35394H520.689V211.646H544.025V140.861H552.511L572.664 211.646H596L576.2 140.861H583.625L596 128.12ZM544.025 117.856V23.7129H570.543L572.664 25.8364V115.733L570.543 117.856H544.025Z" fill="#111111"/>
</svg>
